# xmcd CD database file
#
# Track frame offsets:
#	187
#	22187
#	42040
#	64007
#
# Disc length: 1117 seconds
#
# Revision: 0
# Processed by: cddbd v1.5PL3 Copyright (c) Steve Scherf et al.
# Submitted via: CDex 1.51
#
DISCID=2d045b04
DTITLE=Smap - はじめての夏
DYEAR=1993
DGENRE=JPop
TTITLE0=はじめての夏
TTITLE1=これから海へ行こうよ
TTITLE2=はじめての夏(karaoke)
TTITLE3=これから海へ行こうよ(Karaoke)
EXTD=YEAR: 1993
EXTT0=
EXTT1=
EXTT2=
EXTT3=
PLAYORDER=
